<svg id="e265b8d0-9e86-476e-a0b7-1ca8bea7bff7" data-name="Layer 1" xmlns="http://www.w3.org/2000/svg" xmlns:xlink="http://www.w3.org/1999/xlink" viewBox="0 0 1080 1080"><defs><linearGradient id="ad1b5a5c-556d-446d-a8e4-1d1f305757cd" x1="540" y1="151.11" x2="540" y2="928.89" gradientUnits="userSpaceOnUse"><stop offset="0" stop-color="#6b0080"/><stop offset="1" stop-color="#400080"/></linearGradient></defs><path d="M1039.94,686.54C1037.65,668,926,648.85,926,648.85c-2.18-153.27-165-497.74-210.13-497.74-45.49,0-122.35,226.61-122.35,226.61l0,0a535.15,535.15,0,0,0-107.18,0l0,0S409.58,151.11,364.09,151.11c-45.16,0-207.95,344.47-210.13,497.74,0,0-111.61,19.11-113.9,37.69S101,754,150.41,768.72c-46.85,54.16-52,88.18-45.54,96.94s73.33-12.6,114.28-14.11c38.3-.32,86.86,22,113.32,34.37,58.79,28.66,133.16,43,207.53,43s148.74-14.31,207.53-43c26.46-12.41,75-34.69,113.32-34.37,40.95,1.51,107.82,22.87,114.28,14.11s1.31-42.78-45.54-96.94C979,754,1042.23,705.11,1039.94,686.54Z" style="fill:url(#ad1b5a5c-556d-446d-a8e4-1d1f305757cd)"/><path d="M300.48,601.46c-1.89.08-4.6.15-8.15.19l-11.56.13q-6.24.08-12,.2t-9.68.11q1.19-7.26,3.35-18.19t5-24.24q2.81-13.32,6-27.91t6.5-29.23q3.32-14.64,6.57-28.2t6-24.34q12.38-4.08,23.49-7.11a217.12,217.12,0,0,1,21.49-4.75q6.33-1,12.45-1.57c4.08-.34,8.2-.54,12.36-.56q2.19,10.41,4.38,23.71t4.49,31.78q2.29,18.48,4.65,44T380.52,596q-4,.74-11.61,1.58t-15.76,1.49q-8.2.64-14.53.87c-.15-2.31-.27-4.8-.38-7.47S338,587,338,584.05s-.14-5.95-.22-9-.14-6-.21-9-.11-5.84-.11-8.56q-3.5.38-7.21.82t-7.3.89c-2.4.3-4.63.62-6.7,1s-3.91.71-5.5,1.07-2.8.65-3.6.87q-1.51,7.35-2.82,14.7T302,590.61Q301,597,300.48,601.46Zm11.64-76.4q2-.57,6.7-1.56c3.16-.66,6.45-1.26,9.87-1.82s6-.91,7.85-1.1q-.1-2.25-.32-8.81t-.55-14.41c-.22-5.24-.4-10-.55-14.22s-.29-7-.43-8.24c-1,.14-2.59.41-4.69.83s-4.13.85-6.06,1.28-3.29.76-4.08,1c-.44,2.42-1,5.73-1.75,9.91s-1.47,8.65-2.23,13.37-1.49,9.2-2.18,13.42S312.48,522.36,312.12,525.06Z" style="fill:#fff"/><path d="M429.49,596.41q-7.59.15-15.88-.22t-15.27-.87c-4.64-.33-8.24-.63-10.8-.88.07-.66.11-2.59.11-5.77s0-7.26.05-12.27.06-10.63.06-16.91,0-12.93.05-20,.06-14.13.06-21.32q0-14.75-.11-29.54t-.39-27.6q-.27-12.79-.82-21.15c1.54-.18,4-.41,7.29-.66s7-.45,11-.58,8-.16,11.81-.11,7.13.18,9.84.37q6.93,10.51,13,21.41t11.44,22q5.4,11.06,10.24,22.5t9.14,23.5q-2.15-46.53-4.29-93c2.35-.14,5.3-.17,8.87-.09s7.27.23,11.13.46,7.38.55,10.58,1a39.28,39.28,0,0,1,7.22,1.46c.29,3.26.57,6.94.83,11s.46,8.47.6,13.15.3,9.54.45,14.57.23,10.13.27,15.29.06,10.24.06,15.23q0,14.46-.28,28.72t-.83,26.4q-.56,12.13-1.21,20.53a66.91,66.91,0,0,1-1.43,11c-2.21.11-4.58.21-7.11.32s-5.13.17-7.78.2c-4,0-7.8,0-11.51-.2a66.83,66.83,0,0,1-9.31-1c-.59-1.27-1.58-3.46-3-6.55s-3.14-6.87-5.23-11.35S454,566,451.44,560.57s-5.19-11.13-8-17S437.87,531.82,435,526s-5.55-11.51-8.19-16.92q.43,3.39.71,10t.55,15q.28,8.46.55,17.61t.44,17.88q.16,8.73.28,15.74T429.49,596.41Z" style="fill:#fff"/><path d="M556,597.14q-5,0-11.58-.15t-13.29-.51q-6.68-.39-12.18-1.26-.23-8-.45-20.81t-.38-27.58q-.17-14.79-.17-28.49,0-21.33.33-45t.78-48.79c1.39-.11,3.64-.23,6.72-.36l10.37-.39c3.82-.14,7.56-.24,11.2-.31s6.67-.08,9.09,0q.68,13.18,1.11,30t.71,34.71q.29,17.91.28,35,0,8.52-.11,17.25t-.22,17.06q-.12,8.34-.44,15.77T557,586.8C556.69,590.94,556.36,594.38,556,597.14Z" style="fill:#fff"/><path d="M569.67,594.09q0-9.17.11-23.43t.27-31.5q.16-17.24.5-35.76t.82-36.46q.51-17.93,1.16-33.28c4-.33,8.75-.54,14.11-.6s10.66-.06,15.88,0,9.62.22,13.22.38,5.57.28,5.94.3c.15.35.62,2.3,1.43,5.84s1.88,8.12,3.2,13.73,2.73,11.77,4.23,18.48,3,13.53,4.57,20.44,3,13.44,4.35,19.6,2.49,11.47,3.41,15.91,1.52,7.5,1.81,9.2l-4.51.46c.74-2.18,1.74-5.73,3-10.66s2.77-10.67,4.45-17.21,3.43-13.39,5.23-20.56,3.52-14.14,5.16-20.9,3.08-12.8,4.29-18.1,2.07-9.35,2.58-12.15q5.16.5,13.13,1.58t16.18,2.64a108,108,0,0,1,13.7,3.35A209.5,209.5,0,0,1,711,473.68q.88,16.95.88,36,0,15.68-.44,31.8t-1.15,30.38q-.71,14.25-1.37,24.29-6-.2-13.09-.65t-13.33-1.13c-4.17-.44-7.46-.74-9.88-.88q.43-6.75.93-18.44t.94-24.3q.21-7.75.44-15.37t.44-13.86q.21-6.22.44-9.6c-.74,3-1.76,6.72-3.08,11.32s-2.78,9.63-4.39,15.11-3.28,11.06-5,16.73-3.39,11.07-5,16.19-3,9.57-4.29,13.37-2.2,6.54-2.86,8.21c-1.17.06-2.89.09-5.17.08s-4,0-5.17,0a59.56,59.56,0,0,1-6.54-.5q-3.36-.45-7.65-.9c-.15-1.36-.55-3.67-1.21-6.91s-1.46-7.25-2.37-12-1.91-9.9-3-15.47-2.17-11.25-3.31-17-2.26-11.41-3.36-16.87-2.13-10.47-3.08-15-1.76-8.31-2.43-11.25q.12,11.94.17,25t.11,25.33q.06,12.32.11,22.31t.11,16.49c0,4.31.05,6.9.05,7.76l-11.07.12-13.94.13Q576.17,594.14,569.67,594.09Z" style="fill:#fff"/><path d="M749.57,600.25q-2.84-.11-8.18-.48l-11.64-.83q-6.29-.47-12.14-.83t-9.8-.74q1.2-7.93,3.4-19.74t5-25.83q2.85-14,6.07-29.09T728.88,493q3.33-14.69,6.61-27.9t6-23.42c8.29.22,16.15.7,23.55,1.39a203.32,203.32,0,0,1,21.43,3.14q6.3,1.29,12.38,3c4,1.13,8.13,2.42,12.24,3.85q2.17,10.33,4.33,23.15t4.44,30.12q2.26,17.28,4.59,40.64t4.7,54.62c-2.66.22-6.48.37-11.46.49s-10.17.15-15.59.12-10.24-.14-14.43-.33q-.23-3.35-.38-7.2T787,586.5q-.1-4.26-.21-8.64t-.22-8.71q-.11-4.32-.11-8.23-3.48-.18-7.17-.32l-7.29-.24c-2.39-.08-4.63-.1-6.7-.06s-3.9.11-5.5.23-2.8.22-3.59.32q-1.53,7.23-2.84,14.57c-.87,4.89-1.64,9.51-2.29,13.83S749.94,597.25,749.57,600.25Zm11.67-75.92q2-.15,6.7-.09c3.15,0,6.44.16,9.84.37s6,.43,7.83.65c-.07-1.47-.18-4.32-.32-8.57s-.33-8.91-.55-14-.4-9.72-.54-13.86-.29-6.83-.44-8.08c-1-.17-2.57-.37-4.67-.59s-4.12-.41-6-.56-3.28-.24-4.08-.28c-.43,2.27-1,5.38-1.74,9.34s-1.47,8.2-2.23,12.72-1.49,8.82-2.18,12.9S761.6,521.7,761.24,524.33Z" style="fill:#fff"/><path d="M336,852.8a103.06,103.06,0,0,1-40.84-16.07,104.1,104.1,0,0,1-29.53-30,106.19,106.19,0,0,1-15.49-40.39,86.92,86.92,0,0,1,10-4.66q6.9-2.85,15.27-6.05t16.19-6c5.22-1.85,9.51-3.28,12.88-4.24a84,84,0,0,0,8.33,22.32,63.5,63.5,0,0,0,12.5,16.38c4.64,4.23,9.3,6.64,14,7.18q8.19.94,12.7-4.67t6.56-18.13q2.06-12.5,2.05-32.44,0-11.32-.57-26t-1.48-29.71q-.9-15.07-1.8-28.11t-1.48-21.48c-.39-5.64-.63-8.88-.74-9.73a145.15,145.15,0,0,1,16.09-2.94,149.23,149.23,0,0,1,16.77-1.3q8.38-.15,15,.14t13.35,1.13q1,12.43,1.89,29.14T419.29,682q.82,18,1.24,34.51t.41,28.56c0,22.56-2,41.4-5.93,56.38s-9.67,26.67-17.13,34.94a50.88,50.88,0,0,1-26.89,16Q355.3,856,336,852.8Z" style="fill:#fff"/><path d="M488,867.81c-2.87-.12-7-.4-12.4-.87s-11.26-1-17.59-1.7-12.44-1.34-18.33-2-10.81-1.32-14.76-1.93Q426.72,849.15,430,831t7.59-40.08q4.29-21.93,9.16-45.83t9.91-47.67q5-23.77,10-45.57t9.09-39q18.84-2.83,35.71-4.56t32.59-1.7q9.6,0,18.86.72t18.69,2.11q3.31,17,6.62,38.48T595,698.77q3.46,29.38,7,69.56t7.19,94.61c-4.08.86-9.91,1.8-17.52,2.76s-15.54,1.73-23.81,2.31-15.61.84-22,.87q-.33-5.61-.57-12.12t-.42-13.67q-.17-7.17-.33-14.55c-.11-4.91-.22-9.8-.33-14.64s-.17-9.48-.17-13.87c-3.53.14-7.17.29-10.91.47l-11.09.51c-3.64.15-7,.37-10.17.64s-5.93.58-8.35.91-4.25.62-5.46.85q-2.32,11.94-4.3,24T490.3,850Q488.8,860.51,488,867.81ZM505.68,743c2-.37,5.37-.78,10.17-1.26s9.78-.86,15-1.17,9.15-.47,11.91-.47q-.16-3.69-.49-14.36t-.83-23.47q-.49-12.81-.83-23.18t-.66-13.49q-2.32,0-7.12.29t-9.18.67q-4.38.39-6.2.58-1,5.8-2.65,15.88t-3.39,21.49q-1.74,11.41-3.31,21.67T505.68,743Z" style="fill:#fff"/><path d="M618,863q0-13.62.16-34.83t.42-46.83q.24-25.62.74-53.16T620.53,674q.74-26.65,1.73-49.46,9.09-.9,21.13-1.37t23.75-.71q11.7-.26,19.76-.24l8.88,0q.33.75,2.14,8.36t4.77,19.63q3,12,6.33,26.29t6.81,28.89Q719.28,720,722.31,733t5.09,22.21c1.37,6.19,2.27,10.46,2.71,12.84l-6.73,1.51q1.64-4.87,4.51-15.84t6.64-25.38q3.76-14.41,7.78-30.14t7.7-30.4c2.45-9.81,4.58-18.5,6.38-26.13s3.08-13.42,3.84-17.42q7.68.15,19.51.73t24,1.61a181.72,181.72,0,0,1,20.3,2.68q3.24,15,4.53,37.53c.87,15.07,1.3,31.1,1.3,48.19q0,21-.65,42.81t-1.7,41.18q-1,19.41-2,33.18c-5.95,1.37-12.41,2.71-19.4,4s-13.58,2.28-19.78,3-11.08,1.37-14.67,1.91q.65-9.57,1.38-26t1.39-34.19q.33-10.87.65-21.56t.66-19.43q.32-8.74.65-13.48c-1.09,4.27-2.61,9.74-4.57,16.46s-4.14,14.1-6.53,22.16-4.88,16.32-7.44,24.73-5,16.46-7.44,24.12-4.53,14.35-6.39,20.07-3.27,9.88-4.25,12.43c-1.75.39-4.32.89-7.71,1.46s-6,1-7.7,1.23a83.91,83.91,0,0,1-9.77.83c-3.34.09-7.14.23-11.42.41q-.33-2.91-1.81-9.76t-3.53-16.9q-2.05-10.07-4.44-21.92t-4.94-24.24q-2.55-12.39-5-24.11t-4.61-21.55q-2.13-9.82-3.62-16.16.16,17.45.25,36.47t.16,37q.09,18,.17,32.62T676,845.8q.09,9.47.09,11.34c-4.4.6-9.92,1.3-16.56,2.05s-13.61,1.49-20.87,2.18S624.46,862.6,618,863Z" style="fill:#fff"/></svg>