<?xml version="1.0" encoding="UTF-8"?>
<svg id="Layer_2" data-name="Layer 2" xmlns="http://www.w3.org/2000/svg" xmlns:xlink="http://www.w3.org/1999/xlink" viewBox="0 0 500 388.89">
  <defs>
    <style>
      .cls-1 {
        fill: #fff;
      }

      .cls-2 {
        fill: url(#linear-gradient);
      }
    </style>
    <linearGradient id="linear-gradient" x1="250" y1="0" x2="250" y2="388.89" gradientUnits="userSpaceOnUse">
      <stop offset="0" stop-color="#6b0080"/>
      <stop offset="1" stop-color="#400080"/>
    </linearGradient>
  </defs>
  <g id="Layer_1-2" data-name="Layer 1">
    <g>
      <path class="cls-2" d="M499.97,267.71c-1.15-9.29-56.95-18.84-56.95-18.84C441.93,172.23,360.54,0,337.96,0s-61.18,113.3-61.18,113.3c0,0,.01,.02,.01,.02-17.44-1.8-36.15-1.8-53.59,0,0,0,.01-.02,.01-.02,0,0-38.43-113.3-61.18-113.3S58.07,172.23,56.98,248.87c0,0-55.81,9.56-56.95,18.84-1.15,9.29,30.46,33.74,55.17,41.09-23.43,27.08-26,44.09-22.77,48.47,3.23,4.38,36.67-6.3,57.14-7.05,19.15-.16,43.43,10.98,56.66,17.19,29.39,14.33,66.58,21.49,103.77,21.48,37.19,0,74.37-7.15,103.77-21.48,13.23-6.21,37.51-17.35,56.66-17.19,20.48,.75,53.91,11.43,57.14,7.05,3.23-4.38,.66-21.39-22.77-48.47,24.71-7.35,56.32-31.8,55.17-41.09Z"/>
      <g>
        <path class="cls-1" d="M130.24,225.18c-6.18,.15-14.48,.23-20.71,.31,4.51-24.53,10.65-51.7,16.69-76.05,11.68-3.82,22.8-6.96,34.9-7,5.26,26.3,7.01,51.07,9.14,80.01-5.91,.99-14.8,1.72-20.95,1.97-.39-6.9-.6-14.29-.6-21.23-4.92,.57-10.45,1.07-15.15,2.31-1.3,6.3-2.54,13.58-3.32,19.67Zm5.82-38.2c3.1-.84,8.97-1.89,12.21-2.24-.24-6.28-.61-16.57-.93-22.84-1.92,.34-5.56,1.07-7.42,1.59-1.27,7-2.83,16.43-3.87,23.49Z"/>
        <path class="cls-1" d="M194.74,222.65c-6.48,.13-14.85-.43-20.98-.99,.01-24.77,.65-52.57-.49-77.26,5.91-.57,13.97-.91,19.98-.49,9.11,14.01,16.23,28.97,21.9,44.69-.72-15.51-1.43-31.01-2.15-46.48,5.67-.15,13.41,.05,18.9,1.4,1.51,25.19,1.96,53.17-.77,77.94-5.64,.24-12.4,.58-17.85-.33-6.15-13.53-13.23-28.57-19.86-42.16,.97,13.65,1.12,29.99,1.32,43.69Z"/>
        <path class="cls-1" d="M258,223.01c-5.66-.04-12.86-.13-18.53-.9-.71-28-.59-56.87,.06-85.42,5.5-.31,13.11-.59,18.69-.55,.91,28.17,2.12,58.65-.22,86.87Z"/>
        <path class="cls-1" d="M333.96,147.15c-6.07-1.86-15.25-3.12-21.5-3.72-3.08,13.98-7.13,30.59-11.04,44.93-3.13-15.16-7.12-32.5-10.57-47.04-7.03-.36-17.33-.67-24.57,.01-1.08,25.66-1.33,54.76-1.43,80.15,6.02,.02,13.56-.07,19.4-.14-.13-15.03-.15-32.92-.28-48.42,3.24,15,6.56,32.25,9.36,47.28,4.18,.55,8.14,.9,12.27,.68,4.33-12.5,8.82-27.65,12.31-40.46-.59,12.6-.79,28.44-1.59,40.78,5.29,.45,12.63,1.23,18.15,1.33,1.2-23.71,3.05-51.99-.49-75.38Z"/>
        <path class="cls-1" d="M354.79,224.57c-6.23-.36-14.6-.97-20.88-1.44,4.27-25.14,10.33-53.09,16.84-77.86,12.14,.31,23.5,1.63,34.8,5.68,4.95,24.42,6.91,47.58,9.03,74.26-5.89,.4-14.67,.39-20.74,.14-.38-6.64-.59-13.76-.6-20.45-4.89-.2-10.36-.58-15.13-.03-1.32,6.28-2.56,13.6-3.33,19.7Zm5.83-37.96c3.15-.17,9.01,.1,12.19,.46-.23-6.12-.61-16.16-.92-22.27-1.9-.24-5.51-.62-7.4-.66-1.29,6.68-2.85,15.7-3.87,22.46Z"/>
        <path class="cls-1" d="M147.99,350.84c-22.17-3.57-39.38-21.14-42.93-43.22,7.66-3.83,18.93-7.85,27.15-10.48,1.61,7.31,5.25,14.59,10.41,19.35,8.18,7.48,15.62,2.92,16.59-7.82,2.59-22.29-.55-51.19-2.05-73.71,9.79-2.36,20.82-2.69,30.67-1.49,1.12,15.15,2,33.65,2.43,49.21,1.54,31.65-.76,76.07-42.28,68.15Z"/>
        <path class="cls-1" d="M223.99,358.35c-9.45-.57-22.09-1.94-31.54-3.26,6.72-40.05,16.02-84.49,25.43-124.21,18.05-2.72,35.13-4.5,52.93-1.71,7.77,41.73,10.57,81.07,13.8,126.74-8.9,1.78-22.34,2.92-31.67,2.97-.58-11.19-.9-23.17-.91-34.43-7.44,.39-15.8,.41-22.99,1.69-1.99,10.3-3.87,22.24-5.04,32.2Zm8.85-62.41c4.75-.76,13.65-1.39,18.53-1.45-.36-10.24-.92-27.02-1.41-37.25-2.9,.12-8.41,.46-11.25,.86-1.94,11.27-4.31,26.46-5.87,37.83Z"/>
        <path class="cls-1" d="M392.03,239.06c-9.12-1.64-22.72-2.23-31.91-2.42-4.67,20.35-10.71,44.54-16.45,65.46-4.73-21.43-10.69-45.96-15.77-66.53-10.54,0-25.94,.04-36.76,1.24-1.62,38.14-1.99,81.4-2.15,119.14,9.04-.56,20.33-1.77,29.03-2.93-.2-21.96-.22-48.12-.41-70.78,4.8,21.36,9.75,45.93,13.99,67.32,6.31-.09,12.25-.59,18.3-1.96,6.33-18.57,13.02-41.02,18.31-59.99-.88,17.73-1.18,39.98-2.37,57.36,7.92-.99,18.86-2.47,26.93-4.47,1.72-31.9,4.55-70.03-.73-101.44Z"/>
      </g>
    </g>
  </g>
</svg>